<?xml version="1.0" encoding="UTF-8"?>
<svg id="_Слой_2" data-name="Слой 2" xmlns="http://www.w3.org/2000/svg" xmlns:xlink="http://www.w3.org/1999/xlink" viewBox="0 0 500 500">
  <defs>
    <style>
      .cls-1 {
        clip-path: url(#clippath-2);
      }

      .cls-2 {
        fill: #cad2f9;
      }

      .cls-2, .cls-3, .cls-4, .cls-5, .cls-6, .cls-7, .cls-8, .cls-9, .cls-10, .cls-11, .cls-12, .cls-13, .cls-14 {
        stroke-width: 0px;
      }

      .cls-3 {
        fill: #edf0fc;
      }

      .cls-4 {
        fill: none;
      }

      .cls-5 {
        fill: #f5f9ff;
      }

      .cls-15 {
        clip-path: url(#clippath-1);
      }

      .cls-6 {
        fill: #d0dbf7;
      }

      .cls-7 {
        fill: #fff;
      }

      .cls-16 {
        opacity: .3;
      }

      .cls-17 {
        clip-path: url(#clippath);
      }

      .cls-8 {
        fill: #0046a0;
        opacity: .1;
      }

      .cls-9 {
        fill: #f9ab43;
      }

      .cls-10 {
        fill: #6e7fdd;
      }

      .cls-11 {
        fill: #b3c9f9;
      }

      .cls-12 {
        fill: #ffcf74;
      }

      .cls-13 {
        fill: #eb725f;
      }

      .cls-14 {
        fill: #e2e6ff;
      }
    </style>
    <clipPath id="clippath">
      <path class="cls-4" d="M142.61,262.88s2.62-5.58,3.96-12.95c-.22-2.31-.54-4.55-.97-6.73-.36-1.9-.81-3.74-1.31-5.55-1.32,2.27-2.99,4.63-4.84,6.16,0,0,2.08-4.42,3.48-10.58-1.44-4.17-3.23-8.09-5.34-11.8-.68,2.23-1.58,4.51-2.77,6.21,0,0,.74-4.03.74-9.58-.4-.63-.8-1.27-1.22-1.89-2.35-3.42-4.99-6.63-7.93-9.64-.24,2.53-.72,5.22-1.64,7.3,0,0,0-4.26-1.04-9.9-2.98-2.74-6.25-5.27-9.87-7.57.1,2.44,0,5.02-.56,7.12,0,0-.56-3.77-2.15-8.78-3.23-1.87-6.73-3.54-10.54-5.01.43,2.02.71,4.1.61,5.92,0,0-1.05-2.91-3.09-6.84-2.75-.96-5.69-1.78-8.83-2.48-3.19-.7-6.56-1.29-10.49-1.48-1.23,3.74-1.89,7.09-2.37,10.32-.48,3.18-.76,6.22-.85,9.13,2.94,3.32,5.28,5.34,5.28,5.34-1.74-.56-3.58-1.56-5.31-2.69,0,4.08.32,7.95.91,11.64,4.11,3.28,7.43,5.15,7.43,5.15-2.16-.22-4.6-1.05-6.85-2.03.85,4.2,2.04,8.16,3.53,11.93,4.9,2.99,8.87,4.52,8.87,4.52-2.28.11-4.96-.4-7.41-1.09,1.76,3.83,3.81,7.44,6.16,10.86.43.62.88,1.21,1.33,1.82,5.18,1.98,9.21,2.74,9.21,2.74-2.02.5-4.46.53-6.79.37,2.71,3.29,5.73,6.37,9.11,9.21,6.26.9,11.13.54,11.13.54-2.09,1.19-4.9,1.89-7.49,2.32,1.51,1.11,3.07,2.19,4.71,3.21,1.88,1.17,3.86,2.28,5.93,3.31,7.36,1.39,13.51.94,13.51.94-1.83,1.04-4.2,1.7-6.5,2.14.65.25,1.31.49,1.99.73,2.79.98,5.77,1.83,8.95,2.54,3.18.71,6.54,1.3,10.45,1.5,1.21-3.73,1.86-7.07,2.34-10.3.48-3.23.75-6.31.83-9.27.02-.71.03-1.42.03-2.12-1.23,1.99-2.7,3.96-4.33,5.3Z"/>
    </clipPath>
    <clipPath id="clippath-1">
      <path class="cls-4" d="M414.56,350.19s6.15.4,13.5-1.06c2.07-1.05,4.04-2.18,5.9-3.37,1.64-1.03,3.18-2.13,4.68-3.25-2.59-.4-5.4-1.08-7.51-2.25,0,0,4.87.32,11.12-.64,3.35-2.87,6.35-5.97,9.03-9.29-2.33.19-4.77.18-6.79-.31,0,0,4.02-.79,9.18-2.82.44-.61.89-1.21,1.31-1.83,2.32-3.44,4.35-7.07,6.07-10.91-2.45.71-5.12,1.25-7.4,1.15,0,0,3.96-1.57,8.83-4.6,1.45-3.77,2.61-7.75,3.42-11.96-2.24.99-4.67,1.84-6.83,2.09,0,0,3.31-1.9,7.38-5.22.55-3.69.83-7.56.8-11.64-1.72,1.15-3.56,2.16-5.29,2.74,0,0,2.32-2.04,5.23-5.38-.12-2.91-.43-5.95-.93-9.12-.51-3.23-1.21-6.57-2.47-10.3-3.93.23-7.29.84-10.48,1.57-3.13.72-6.06,1.57-8.8,2.55-2.01,3.95-3.03,6.87-3.03,6.87-.12-1.82.14-3.9.56-5.93-3.79,1.5-7.28,3.21-10.5,5.11-1.55,5.02-2.07,8.8-2.07,8.8-.58-2.1-.71-4.67-.62-7.11-3.6,2.33-6.85,4.89-9.8,7.65-.98,5.65-.96,9.91-.96,9.91-.94-2.08-1.44-4.76-1.7-7.29-2.92,3.04-5.53,6.27-7.85,9.71-.42.62-.81,1.26-1.21,1.9.06,5.55.83,9.57.83,9.57-1.21-1.69-2.13-3.95-2.83-6.18-2.07,3.73-3.83,7.67-5.23,11.85,1.46,6.15,3.58,10.55,3.58,10.55-1.87-1.51-3.55-3.86-4.9-6.12-.48,1.81-.91,3.66-1.26,5.56-.4,2.18-.71,4.42-.91,6.74,1.4,7.35,4.08,12.91,4.08,12.91-1.63-1.32-3.13-3.28-4.37-5.26,0,.7.02,1.4.05,2.12.11,2.96.41,6.04.92,9.26.51,3.22,1.19,6.56,2.43,10.28,3.91-.24,7.26-.86,10.44-1.6,3.18-.74,6.14-1.61,8.93-2.62.67-.24,1.33-.49,1.98-.75-2.3-.42-4.68-1.06-6.52-2.08Z"/>
    </clipPath>
    <clipPath id="clippath-2">
      <path class="cls-4" d="M145.99,252.84h-42.64l-32.74,152.97c27.15,5.85,54.06,5.85,54.06,5.85,0,0,26.91,0,54.06-5.85l-32.74-152.97Z"/>
    </clipPath>
  </defs>
  <g id="BACKGROUND">
    <rect class="cls-7" width="500" height="500"/>
  </g>
  <g id="OBJECTS">
    <g>
      <path class="cls-13" d="M89.57,285.84c-.26-.35-.51-.69-.76-1.04-2.91-3.86-5.99-7.59-9.24-11.16.08-7.19-.09-34.4-7.38-33-6.73,1.29,2.06,22.83,5.8,31.32-1.42-1.51-2.87-3-4.35-4.45-4.92-6.38-21.45-26.94-26.3-21.38-4.49,5.16,15.16,16.54,23.8,21.18,1.6,1.53,3.18,3.09,4.71,4.69-8.32-4.16-29.08-13.76-30.92-7.2-2,7.12,25.14,8.62,32.51,8.9,3.83,4.13,7.43,8.48,10.79,13-7.46-4.72-28.09-17.05-30.63-10.54-2.72,6.97,24.86,11.15,31.76,12.08,3.63,5.01,6.97,10.22,10.03,15.6-7.13-6.04-24.93-20.23-28.28-14.31-3.63,6.43,22.31,14.34,29.44,16.37.49.89.99,1.79,1.47,2.69,2.43,4.57,4.67,9.25,6.73,14.02-6.46-6.33-23.71-22.32-27.52-16.56-4.09,6.19,21.49,15.95,28.32,18.42,3.05,7.26,5.66,14.71,7.77,22.28-5.52-7.19-20.33-25.4-24.91-20.23-4.92,5.55,19.04,18.81,25.46,22.22.09.32.18.64.27.96.68,2.6,1.34,5.22,1.8,7.86.18,1.01,1.75.77,1.58-.25-.46-2.63-1.05-5.25-1.72-7.85,3.27-6.58,14.82-30.92,7.69-32.82-6.49-1.73-8.04,20.56-8.4,30.16-1.22-4.33-2.64-8.61-4.14-12.81-1.07-3-2.21-5.98-3.43-8.93,2.25-6.76,10.44-32.83,3.06-33.72-6.74-.82-5.04,21.93-4.06,31.32-2.36-5.55-4.98-10.99-7.86-16.28,1.77-6.9,8.12-33.48.69-33.85-6.85-.35-3.43,22.71-1.81,31.83-3.14-5.6-6.57-11.04-10.3-16.26.81-7.5,3.17-34-4.14-33.32-6.65.61-.51,21.82,2.49,31.05Z"/>
      <path class="cls-13" d="M434.43,242.01c.18-.39.37-.78.55-1.17,2-4.4,3.8-8.89,5.39-13.45,6.36-3.37,30.18-16.52,25.46-22.25-4.35-5.3-19.08,12.71-24.74,20.06.65-1.97,1.26-3.95,1.83-5.95,3.26-7.37,13.42-31.72,6.21-33.32-6.68-1.48-7.28,21.22-7.24,31.03-.58,2.14-1.2,4.27-1.87,6.38-.33-9.3-1.8-32.12-8.45-30.6-7.21,1.64,4.43,26.2,7.71,32.81-1.8,5.34-3.9,10.57-6.27,15.69.59-8.81,1.56-32.82-5.37-31.94-7.43.94,2.09,27.16,4.57,33.67-2.66,5.58-5.65,11.01-8.91,16.27,1.9-9.15,5.86-31.57-.94-31.68-7.39-.12-1.94,26.45-.32,33.68-.55.86-1.1,1.72-1.66,2.57-2.86,4.32-5.9,8.52-9.1,12.61,2.47-8.7,8.28-31.49,1.39-32.09-7.39-.64-3.75,26.5-2.65,33.68-4.92,6.15-10.22,12-15.86,17.47,3.68-8.28,12.6-30,5.87-31.55-7.23-1.67-7.43,25.72-7.35,32.98-.24.23-.47.46-.71.69-1.96,1.84-3.94,3.67-6.05,5.33-.81.64.16,1.91.97,1.27,2.09-1.66,4.11-3.43,6.08-5.26,7.35-.27,34.24-1.75,32.51-8.93-1.58-6.53-21.9,2.76-30.51,7.03,3.22-3.14,6.3-6.44,9.27-9.75,2.13-2.37,4.2-4.8,6.21-7.28,7.01-1.25,33.83-6.51,31.08-13.43-2.5-6.31-21.67,6.04-29.46,11.4,3.74-4.72,7.27-9.62,10.55-14.68,6.91-1.74,33.29-8.86,30.07-15.57-2.97-6.19-21.59,7.84-28.82,13.62,3.42-5.43,6.56-11.05,9.36-16.82,6.98-2.87,31.38-13.46,27.29-19.56-3.72-5.55-19.41,9.97-26.09,17.02Z"/>
      <g>
        <g>
          <path class="cls-10" d="M142.61,262.88s2.62-5.58,3.96-12.95c-.22-2.31-.54-4.55-.97-6.73-.36-1.9-.81-3.74-1.31-5.55-1.32,2.27-2.99,4.63-4.84,6.16,0,0,2.08-4.42,3.48-10.58-1.44-4.17-3.23-8.09-5.34-11.8-.68,2.23-1.58,4.51-2.77,6.21,0,0,.74-4.03.74-9.58-.4-.63-.8-1.27-1.22-1.89-2.35-3.42-4.99-6.63-7.93-9.64-.24,2.53-.72,5.22-1.64,7.3,0,0,0-4.26-1.04-9.9-2.98-2.74-6.25-5.27-9.87-7.57.1,2.44,0,5.02-.56,7.12,0,0-.56-3.77-2.15-8.78-3.23-1.87-6.73-3.54-10.54-5.01.43,2.02.71,4.1.61,5.92,0,0-1.05-2.91-3.09-6.84-2.75-.96-5.69-1.78-8.83-2.48-3.19-.7-6.56-1.29-10.49-1.48-1.23,3.74-1.89,7.09-2.37,10.32-.48,3.18-.76,6.22-.85,9.13,2.94,3.32,5.28,5.34,5.28,5.34-1.74-.56-3.58-1.56-5.31-2.69,0,4.08.32,7.95.91,11.64,4.11,3.28,7.43,5.15,7.43,5.15-2.16-.22-4.6-1.05-6.85-2.03.85,4.2,2.04,8.16,3.53,11.93,4.9,2.99,8.87,4.52,8.87,4.52-2.28.11-4.96-.4-7.41-1.09,1.76,3.83,3.81,7.44,6.16,10.86.43.62.88,1.21,1.33,1.82,5.18,1.98,9.21,2.74,9.21,2.74-2.02.5-4.46.53-6.79.37,2.71,3.29,5.73,6.37,9.11,9.21,6.26.9,11.13.54,11.13.54-2.09,1.19-4.9,1.89-7.49,2.32,1.51,1.11,3.07,2.19,4.71,3.21,1.88,1.17,3.86,2.28,5.93,3.31,7.36,1.39,13.51.94,13.51.94-1.83,1.04-4.2,1.7-6.5,2.14.65.25,1.31.49,1.99.73,2.79.98,5.77,1.83,8.95,2.54,3.18.71,6.54,1.3,10.45,1.5,1.21-3.73,1.86-7.07,2.34-10.3.48-3.23.75-6.31.83-9.27.02-.71.03-1.42.03-2.12-1.23,1.99-2.7,3.96-4.33,5.3Z"/>
          <g class="cls-17">
            <path class="cls-11" d="M132.73,208.11l-1.02-.12c0,.18-.87,17.91-12.69,34.44l-8.87-12.91c12.16-16.92,10.64-38.65,10.63-38.87h-1.02c.02.23,1.49,21.35-10.25,37.93l-7.89-11.48c12.11-17.04.66-41.07.54-41.31l-.91.42c.11.24,11.16,23.43-.28,39.95l-8.46-12.31c4.45-16.92-7.1-38.26-7.22-38.47l-.88.47c.11.21,11.08,20.48,7.31,36.85l-17.44-25.36-.82.57,17.44,25.36c-16.63-2.34-31.64-19.84-31.79-20.02l-.75.66c.16.19,15.95,18.61,33.34,20.51l8.46,12.31c-19.52,4.76-37.22-13.86-37.4-14.05l-.72.7c.18.2,18.52,19.5,38.76,14.29l7.89,11.48c-19.67,5.02-38.88-3.91-39.08-4.01l-.38.95c.2.09,19.95,9.29,40.1,4l8.87,12.91c-19.65,5.11-36.53-.43-36.7-.49l-.26,1c.17.06,17.51,5.76,37.6.43l6.67,9.71c-19.64,5.19-34.2,3.06-34.35,3.04l-.08,1.04c.15.02,15.06,2.22,35.08-3.14l7.28,10.59c-16.46,4.33-28.65,2.55-28.77,2.54l-.08,1.04c.13.02,12.67,1.86,29.5-2.64l6.07,8.82c-10.33,2.75-17.93,1.74-18.01,1.73l-.07,1.04c.33.05,8.02,1.08,18.72-1.84l11.82,17.19.82-.57-11.82-17.19c6.56-8.95,8.35-16.5,8.42-16.82l-1-.31c-.02.08-1.79,7.53-8.06,16.19l-6.07-8.82c10.23-14.11,13-26.48,13.03-26.6l-1-.29c-.03.12-2.73,12.14-12.67,25.96l-7.28-10.59c12.17-16.77,15.46-31.48,15.49-31.63l-1-.29c-.03.14-3.25,14.5-15.14,30.98l-6.67-9.71c12.17-16.85,13.06-35.08,13.07-35.26Z"/>
          </g>
        </g>
        <path class="cls-8" d="M135.57,218.07c-.4-.63-.8-1.27-1.22-1.89-2.35-3.42-4.99-6.63-7.93-9.64-.24,2.53-.72,5.22-1.64,7.3,0,0,0-4.26-1.04-9.9-2.98-2.74-6.25-5.27-9.87-7.57.1,2.44,0,5.02-.56,7.12,0,0-.56-3.77-2.15-8.78-3.23-1.87-6.73-3.54-10.54-5.01.43,2.02.71,4.1.61,5.92,0,0-1.05-2.91-3.09-6.84-2.75-.96-5.69-1.78-8.83-2.48-3.19-.7-6.56-1.29-10.49-1.48l64.93,94.44c1.21-3.73,1.86-7.07,2.34-10.3.48-3.23.75-6.31.83-9.27.02-.71.03-1.42.03-2.12-1.23,1.99-2.7,3.96-4.33,5.3,0,0,2.62-5.58,3.96-12.95-.22-2.31-.54-4.55-.97-6.73-.36-1.9-.81-3.74-1.31-5.55-1.32,2.27-2.99,4.63-4.84,6.16,0,0,2.08-4.42,3.48-10.58-1.44-4.17-3.23-8.09-5.34-11.8-.68,2.23-1.58,4.51-2.77,6.21,0,0,.74-4.03.74-9.58Z"/>
      </g>
      <g>
        <g>
          <path class="cls-10" d="M414.56,350.19s6.15.4,13.5-1.06c2.07-1.05,4.04-2.18,5.9-3.37,1.64-1.03,3.18-2.13,4.68-3.25-2.59-.4-5.4-1.08-7.51-2.25,0,0,4.87.32,11.12-.64,3.35-2.87,6.35-5.97,9.03-9.29-2.33.19-4.77.18-6.79-.31,0,0,4.02-.79,9.18-2.82.44-.61.89-1.21,1.31-1.83,2.32-3.44,4.35-7.07,6.07-10.91-2.45.71-5.12,1.25-7.4,1.15,0,0,3.96-1.57,8.83-4.6,1.45-3.77,2.61-7.75,3.42-11.96-2.24.99-4.67,1.84-6.83,2.09,0,0,3.31-1.9,7.38-5.22.55-3.69.83-7.56.8-11.64-1.72,1.15-3.56,2.16-5.29,2.74,0,0,2.32-2.04,5.23-5.38-.12-2.91-.43-5.95-.93-9.12-.51-3.23-1.21-6.57-2.47-10.3-3.93.23-7.29.84-10.48,1.57-3.13.72-6.06,1.57-8.8,2.55-2.01,3.95-3.03,6.87-3.03,6.87-.12-1.82.14-3.9.56-5.93-3.79,1.5-7.28,3.21-10.5,5.11-1.55,5.02-2.07,8.8-2.07,8.8-.58-2.1-.71-4.67-.62-7.11-3.6,2.33-6.85,4.89-9.8,7.65-.98,5.65-.96,9.91-.96,9.91-.94-2.08-1.44-4.76-1.7-7.29-2.92,3.04-5.53,6.27-7.85,9.71-.42.62-.81,1.26-1.21,1.9.06,5.55.83,9.57.83,9.57-1.21-1.69-2.13-3.95-2.83-6.18-2.07,3.73-3.83,7.67-5.23,11.85,1.46,6.15,3.58,10.55,3.58,10.55-1.87-1.51-3.55-3.86-4.9-6.12-.48,1.81-.91,3.66-1.26,5.56-.4,2.18-.71,4.42-.91,6.74,1.4,7.35,4.08,12.91,4.08,12.91-1.63-1.32-3.13-3.28-4.37-5.26,0,.7.02,1.4.05,2.12.11,2.96.41,6.04.92,9.26.51,3.22,1.19,6.56,2.43,10.28,3.91-.24,7.26-.86,10.44-1.6,3.18-.74,6.14-1.61,8.93-2.62.67-.24,1.33-.49,1.98-.75-2.3-.42-4.68-1.06-6.52-2.08Z"/>
          <g class="cls-15">
            <path class="cls-11" d="M461.9,320.93l-.27-1c-.17.06-16.98,5.75-36.69.81l8.76-12.98c20.19,5.12,39.86-4.26,40.06-4.35l-.38-.95c-.19.09-19.31,9.2-39.04,4.35l7.79-11.55c20.29,5.03,38.45-14.44,38.64-14.64l-.72-.69c-.18.19-17.71,18.96-37.27,14.38l8.35-12.39c17.38-2.06,33-20.62,33.16-20.81l-.76-.65c-.15.18-15,17.81-31.61,20.3l17.21-25.51-.83-.56-17.21,25.51c-3.92-16.34,6.87-36.71,6.98-36.92l-.89-.46c-.12.22-11.47,21.66-6.87,38.54l-8.35,12.39c-11.58-16.42-.74-39.71-.63-39.95l-.91-.41c-.12.24-11.36,24.37.91,41.31l-7.79,11.55c-11.88-16.47-10.6-37.61-10.59-37.83h-1.02c-.02.22-1.34,21.97,10.97,38.77l-8.76,12.98c-11.95-16.41-12.98-34.15-12.99-34.32l-1.02.13c0,.18,1.06,18.4,13.38,35.14l-6.59,9.77c-12.03-16.37-15.38-30.7-15.41-30.85l-1,.3c.03.15,3.45,14.83,15.77,31.49l-7.19,10.65c-10.06-13.73-12.87-25.72-12.9-25.84l-1,.3c.03.12,2.91,12.47,13.26,26.48l-5.99,8.88c-6.35-8.61-8.19-16.04-8.21-16.12l-1,.31c.08.32,1.93,7.86,8.57,16.75l-11.67,17.3.83.56,11.67-17.3c10.73,2.82,18.41,1.72,18.74,1.67l-.08-1.04c-.08.01-7.66,1.09-18.02-1.57l5.99-8.88c16.87,4.35,29.4,2.4,29.52,2.37l-.09-1.04c-.12.02-12.3,1.9-28.79-2.28l7.19-10.65c20.06,5.18,34.95,2.85,35.1,2.83l-.09-1.04c-.15.02-14.69,2.29-34.37-2.73l6.59-9.77c20.14,5.15,37.42-.7,37.6-.76Z"/>
          </g>
        </g>
        <path class="cls-8" d="M453.67,327.22c.44-.61.89-1.21,1.31-1.83,2.32-3.44,4.35-7.07,6.07-10.91-2.45.71-5.12,1.25-7.4,1.15,0,0,3.96-1.57,8.83-4.6,1.45-3.77,2.61-7.75,3.42-11.96-2.24.99-4.67,1.84-6.83,2.09,0,0,3.31-1.9,7.38-5.22.55-3.69.83-7.56.8-11.64-1.72,1.15-3.56,2.16-5.29,2.74,0,0,2.32-2.04,5.23-5.38-.12-2.91-.43-5.95-.93-9.12-.51-3.23-1.21-6.57-2.47-10.3l-64.08,95.01c3.91-.24,7.26-.86,10.44-1.6,3.18-.74,6.14-1.61,8.93-2.62.67-.24,1.33-.49,1.98-.75-2.3-.42-4.68-1.06-6.52-2.08,0,0,6.15.4,13.5-1.06,2.07-1.05,4.04-2.18,5.9-3.37,1.64-1.03,3.18-2.13,4.68-3.25-2.59-.4-5.4-1.08-7.51-2.25,0,0,4.87.32,11.12-.64,3.35-2.87,6.35-5.97,9.03-9.29-2.33.19-4.77.18-6.79-.31,0,0,4.02-.79,9.18-2.82Z"/>
      </g>
    </g>
    <ellipse class="cls-3" cx="250" cy="416.61" rx="229.71" ry="17.06"/>
    <g>
      <g>
        <rect class="cls-5" x="128.93" y="146.09" width="291.48" height="261.48"/>
        <rect class="cls-6" x="128.93" y="146.09" width="291.48" height="30.92"/>
      </g>
      <g>
        <path class="cls-13" d="M152.45,161.55c0,3.28-2.66,5.94-5.94,5.94s-5.94-2.66-5.94-5.94,2.66-5.94,5.94-5.94,5.94,2.66,5.94,5.94Z"/>
        <path class="cls-9" d="M172.45,161.55c0,3.28-2.66,5.94-5.94,5.94s-5.94-2.66-5.94-5.94,2.66-5.94,5.94-5.94,5.94,2.66,5.94,5.94Z"/>
        <path class="cls-10" d="M192.45,161.55c0,3.28-2.66,5.94-5.94,5.94s-5.94-2.66-5.94-5.94,2.66-5.94,5.94-5.94,5.94,2.66,5.94,5.94Z"/>
      </g>
    </g>
    <g>
      <g>
        <path class="cls-12" d="M377.7,266.29c1.4-3.54-.58-6.44-4.38-6.44h-140.3c-3.81,0-8.06,2.9-9.46,6.44l-31.1,78.87c-1.4,3.54.58,6.44,4.38,6.44h140.3c3.81,0,8.06-2.9,9.46-6.44l31.1-78.87Z"/>
        <path class="cls-12" d="M185.73,338.43l31.1-78.87c1.4-3.54,5.65-6.44,9.46-6.44h110.14v-6.99c0-3.81-3.11-6.92-6.92-6.92h-49.13c-3.81,0-8.41-2.74-10.22-6.08l-6.69-12.32c-1.82-3.35-6.42-6.08-10.22-6.08h-63.12c-3.81,0-6.92,3.11-6.92,6.92v116.3c0,3.34,2.4,6.15,5.57,6.79-2.9-.61-4.25-3.21-3.03-6.3Z"/>
      </g>
      <path class="cls-13" d="M287.67,281.67c-14.45,0-26.16,11.71-26.16,26.16s11.71,26.16,26.16,26.16,26.16-11.71,26.16-26.16-11.71-26.16-26.16-26.16ZM300.47,316.86l-3.77,3.77-9.03-9.03-9.03,9.03-3.77-3.77,9.03-9.03-9.03-9.03,3.77-3.77,9.03,9.03,9.03-9.03,3.77,3.77-9.03,9.03,9.03,9.03Z"/>
    </g>
    <g>
      <g>
        <g>
          <ellipse class="cls-13" cx="124.67" cy="408.52" rx="75.85" ry="12.39"/>
          <path class="cls-12" d="M145.99,252.84h-42.64l-32.74,152.97c27.15,5.85,54.06,5.85,54.06,5.85,0,0,26.91,0,54.06-5.85l-32.74-152.97Z"/>
          <ellipse class="cls-13" cx="124.67" cy="252.84" rx="21.32" ry="3.25"/>
          <g class="cls-1">
            <g>
              <path class="cls-9" d="M123.74,399.08c-43.89,0-73.53-7.34-75.37-7.8l6.11-24.05-3.05,12.02,3.04-12.03c.63.16,63.89,15.66,141.09-.13l4.97,24.31c-28.11,5.75-54.31,7.67-76.78,7.67Z"/>
              <path class="cls-9" d="M123.74,345.1c-43.89,0-73.53-7.34-75.37-7.8l6.11-24.05-3.05,12.02,3.04-12.03c.63.16,63.89,15.66,141.09-.13l4.97,24.31c-28.11,5.75-54.31,7.67-76.78,7.67Z"/>
              <path class="cls-9" d="M123.74,291.12c-43.89,0-73.53-7.34-75.37-7.8l6.11-24.05-3.05,12.02,3.04-12.03c.63.16,63.89,15.66,141.09-.13l4.97,24.31c-28.11,5.75-54.31,7.67-76.78,7.67Z"/>
            </g>
          </g>
        </g>
        <path class="cls-8" d="M151.32,326.64c0,33.26-6.88,63.3-17.96,84.76,10.11-.46,27.68-1.79,45.37-5.6l-32.74-152.97h-7.64c8.11,20.22,12.97,45.88,12.97,73.81Z"/>
      </g>
      <g class="cls-16">
        <path class="cls-7" d="M105.67,276.44c-.78,3.76-1.56,7.52-2.34,11.28-1.87,9.03-3.74,18.06-5.62,27.09-2.28,10.98-4.55,21.95-6.83,32.93-1.96,9.45-3.92,18.89-5.87,28.34-.95,4.57-2.12,9.16-2.86,13.77-.01.06-.03.13-.04.19-.78,3.78,5.11,4.85,5.89,1.08.78-3.76,1.56-7.52,2.34-11.28,1.87-9.03,3.74-18.06,5.62-27.09,2.28-10.98,4.55-21.95,6.83-32.93,1.96-9.45,3.92-18.89,5.87-28.34.95-4.57,2.12-9.16,2.86-13.77.01-.06.03-.13.04-.19.78-3.78-5.11-4.85-5.89-1.08h0Z"/>
      </g>
    </g>
    <g>
      <g>
        <rect class="cls-10" x="261.69" y="386.5" width="147.04" height="9.03" transform="translate(-94.46 107.04) rotate(-15.93)"/>
        <rect class="cls-13" x="340.14" y="375.53" width="67.05" height="9.03" transform="translate(-89.97 117.18) rotate(-15.93)"/>
      </g>
      <g>
        <g>
          <circle class="cls-13" cx="405.91" cy="370.84" r="45.26" transform="translate(-29.94 35.7) rotate(-4.86)"/>
          <circle class="cls-6" cx="405.91" cy="370.84" r="36.43" transform="translate(-98.07 590.58) rotate(-65.97)"/>
        </g>
        <path class="cls-7" d="M433.29,363.02l-4.34,1.24c-3.63-12.71-16.92-20.09-29.62-16.47l-1.24-4.34c15.1-4.31,30.9,4.47,35.21,19.57Z"/>
      </g>
    </g>
    <g>
      <g>
        <polygon class="cls-14" points="372.17 144.44 328.85 131.31 302.8 217.23 370.12 237.64 389.1 175.04 372.17 144.44"/>
        <polygon class="cls-2" points="367.8 178.4 364.7 172.62 350.83 180.03 343.41 166.16 337.62 169.26 345.04 183.13 331.17 190.54 334.27 196.33 348.14 188.92 355.55 202.79 361.34 199.69 353.93 185.82 367.8 178.4"/>
      </g>
      <g>
        <polygon class="cls-14" points="257.21 85.61 213.23 96.32 234.48 183.56 302.82 166.91 287.34 103.35 257.21 85.61"/>
        <polygon class="cls-2" points="270.71 117.08 265.1 113.67 256.93 127.11 243.49 118.93 240.08 124.54 253.52 132.71 245.34 146.15 250.95 149.56 259.13 136.13 272.56 144.3 275.97 138.69 262.54 130.52 270.71 117.08"/>
      </g>
    </g>
    <g>
      <polygon class="cls-14" points="411.34 93.46 400.16 93.46 400.16 82.28 396.18 82.28 396.18 93.46 385 93.46 385 97.44 396.18 97.44 396.18 108.62 400.16 108.62 400.16 97.44 411.34 97.44 411.34 93.46"/>
      <polygon class="cls-14" points="436.38 131.93 430.29 131.93 430.29 125.84 428.12 125.84 428.12 131.93 422.03 131.93 422.03 134.1 428.12 134.1 428.12 140.19 430.29 140.19 430.29 134.1 436.38 134.1 436.38 131.93"/>
      <polygon class="cls-14" points="369.17 121.31 361.8 121.31 361.8 113.93 359.17 113.93 359.17 121.31 351.8 121.31 351.8 123.93 359.17 123.93 359.17 131.31 361.8 131.31 361.8 123.93 369.17 123.93 369.17 121.31"/>
      <polygon class="cls-14" points="89.96 120.16 78.78 120.16 78.78 108.98 74.8 108.98 74.8 120.16 63.62 120.16 63.62 124.14 74.8 124.14 74.8 135.32 78.78 135.32 78.78 124.14 89.96 124.14 89.96 120.16"/>
      <polygon class="cls-14" points="138.76 113.48 132.67 113.48 132.67 107.39 130.51 107.39 130.51 113.48 124.42 113.48 124.42 115.65 130.51 115.65 130.51 121.74 132.67 121.74 132.67 115.65 138.76 115.65 138.76 113.48"/>
      <polygon class="cls-14" points="101.68 163.15 94.31 163.15 94.31 155.77 91.68 155.77 91.68 163.15 84.31 163.15 84.31 165.77 91.68 165.77 91.68 173.15 94.31 173.15 94.31 165.77 101.68 165.77 101.68 163.15"/>
    </g>
    <g>
      <path class="cls-2" d="M346.53,74.96c0,1.34-1.09,2.42-2.42,2.42s-2.42-1.09-2.42-2.42,1.08-2.42,2.42-2.42,2.42,1.09,2.42,2.42Z"/>
      <path class="cls-2" d="M455.98,162.1c0,2.53-2.05,4.59-4.59,4.59s-4.59-2.05-4.59-4.59,2.05-4.59,4.59-4.59,4.59,2.05,4.59,4.59Z"/>
      <path class="cls-2" d="M310.69,100.23c0,1.34-1.09,2.42-2.42,2.42s-2.42-1.09-2.42-2.42,1.08-2.42,2.42-2.42,2.42,1.09,2.42,2.42Z"/>
      <path class="cls-2" d="M172.66,74.96c0,2.53-2.05,4.59-4.59,4.59s-4.59-2.05-4.59-4.59,2.05-4.59,4.59-4.59,4.59,2.05,4.59,4.59Z"/>
      <path class="cls-2" d="M190.49,123.62c0,1.34-1.09,2.42-2.42,2.42s-2.42-1.09-2.42-2.42,1.08-2.42,2.42-2.42,2.42,1.09,2.42,2.42Z"/>
      <path class="cls-2" d="M48.87,170.56c0,1.34-1.09,2.42-2.42,2.42s-2.42-1.09-2.42-2.42,1.08-2.42,2.42-2.42,2.42,1.09,2.42,2.42Z"/>
    </g>
  </g>
</svg>